<?xml version="1.0" standalone="no"?>
<!DOCTYPE svg PUBLIC "-//W3C//DTD SVG 20010904//EN"
 "http://www.w3.org/TR/2001/REC-SVG-20010904/DTD/svg10.dtd">
<svg version="1.0" xmlns="http://www.w3.org/2000/svg"
 width="1024.000000pt" height="1024.000000pt" viewBox="0 0 1024.000000 1024.000000"
 preserveAspectRatio="xMidYMid meet">

<g transform="translate(0.000000,1024.000000) scale(0.100000,-0.100000)"
fill="#000000" stroke="none">
<path d="M4504 7245 c-217 -33 -407 -127 -575 -282 -60 -56 -225 -261 -914
-1138 -225 -286 -450 -572 -500 -635 -50 -63 -152 -191 -225 -285 -74 -93
-166 -210 -205 -260 -39 -49 -122 -155 -185 -235 -124 -159 -260 -329 -574
-724 -114 -142 -204 -262 -200 -265 3 -3 114 -7 247 -9 255 -4 302 2 363 41
19 12 160 179 317 376 666 834 660 827 796 900 112 60 142 63 505 62 490 -2
484 5 378 -376 -130 -464 -272 -983 -272 -994 0 -8 63 -11 252 -9 l252 3 52
185 c28 102 88 316 132 475 136 491 301 1076 324 1149 27 87 53 124 103 150
38 20 57 21 454 24 l414 3 -7 -33 c-4 -18 -18 -103 -31 -188 -14 -85 -27 -168
-30 -183 -3 -20 -1 -26 8 -21 6 5 109 74 227 155 119 80 243 160 276 177 82
41 167 62 256 62 164 0 268 -69 268 -177 0 -99 -52 -173 -158 -225 l-67 -33
-430 -6 c-468 -7 -526 -13 -689 -68 -235 -80 -430 -232 -524 -409 -60 -113
-84 -205 -90 -343 -8 -222 42 -364 173 -494 87 -86 157 -128 283 -171 307
-104 741 -42 1019 147 24 15 43 24 43 19 0 -8 -45 -155 -57 -187 -4 -11 44
-13 255 -13 240 0 261 1 266 18 183 616 464 1607 482 1700 34 181 1 374 -86
502 -98 144 -272 241 -487 269 -46 6 -404 13 -868 16 -627 4 -790 7 -789 17 1
7 27 103 59 213 61 213 301 1041 315 1088 l9 27 -242 -1 c-140 -1 -276 -6
-323 -14z m-125 -547 c-5 -18 -39 -139 -75 -268 -153 -546 -275 -973 -295
-1024 -22 -61 -68 -108 -121 -124 -37 -12 -688 -21 -688 -10 0 4 5 10 10 13 6
4 84 97 173 208 266 329 617 766 811 1009 99 125 184 227 188 228 4 0 2 -15
-3 -32z m1871 -2237 c0 -15 -49 -140 -75 -191 -51 -100 -195 -230 -330 -298
-312 -155 -723 -146 -848 20 -68 90 -52 199 46 305 67 73 185 133 307 158 76
15 900 21 900 6z"/>
<path d="M7737 5895 c-179 -34 -310 -97 -414 -201 -85 -83 -119 -148 -159
-299 -14 -55 -77 -291 -141 -525 -63 -234 -141 -526 -174 -650 -62 -231 -205
-761 -215 -792 -5 -17 11 -18 250 -18 l254 0 7 33 c4 17 41 154 82 302 41 149
126 457 188 685 184 674 193 702 232 780 67 132 155 175 342 168 216 -8 303
-91 287 -273 -7 -78 -11 -96 -260 -1028 -97 -363 -176 -661 -176 -663 0 -2
114 -4 253 -4 l253 0 41 153 c217 806 320 1196 353 1329 63 256 72 364 45 524
-43 242 -196 399 -455 465 -112 28 -470 37 -593 14z"/>
</g>
</svg>
