<svg version="1.2" xmlns="http://www.w3.org/2000/svg" viewBox="0 0 1600 487" width="1600" height="487">
	<title>Logitech_logo-svg</title>
	<style>
		.s0 { fill: #ffffff } 
	</style>
	<g id="layer1">
		<path id="path3008" fill-rule="evenodd" class="s0" d="m0.8 7.9h59v336.1h-59zm337.8 217c0 75.4-59 125.7-127 125.7-71.7 0-128.7-51.2-128.7-125.6 0-66.6 52.4-124.8 128.1-124.8 78.7 0 127.6 61.2 127.6 124.7zm-195.7 0.4c0 34.9 26.4 68.2 68.4 68.2 35.6 0 67.8-28.8 67.8-68.3 0-37.2-29.2-68.1-68.8-68.1-37.6 0-67.4 30-67.4 68.2zm385-118.1h83.9v47.9l-16.4 5.6c0 0 19.2 19.7 19.2 64.2 0 75.4-59 125.7-127 125.7-71.7 0-128.7-51.2-128.7-125.6 0-66.6 52.4-124.8 128.1-124.8 22.7 0 40.9 7 40.9 7zm-109 118.1c0 34.9 26.4 68.2 68.4 68.2 35.6 0 67.8-28.8 67.8-68.3 0-37.2-29.2-68.1-68.8-68.1-37.6 0-67.4 30-67.4 68.2zm195.3 135.2c0 75.4-59 125.5-127.1 125.5-71.6 0-128.6-51.2-128.6-125.5h59.9c0 34.8 26.5 68.5 68.5 68.5 35.6 0 67.7-29.1 67.7-68.5zm24.1-253.3h59v236.8h-59zm29.4-28.1c-21.6 0-39.1-17.5-39.1-39.1 0-21.7 17.5-39.1 39.1-39.1 21.6 0 39.1 17.4 39.1 39.1 0 21.6-17.5 39.1-39.1 39.1z"/>
		<path id="path3018" fill-rule="evenodd" class="s0" d="m754.6 344v-183.8h-31.6v-53h31.6v-72.8h59.1v72.8h32.5v53h-32.5v183.8zm345.6-111v16.2h-184c8.7 31.9 33.6 49.2 64.7 49.2 37.3 0 67.1-32.1 67.1-32.1l39.4 39.5c0 0-35.3 44.9-107.3 44.9-77.1 0-126.3-52.4-126.3-123.6 0-68.8 49-127.1 125.1-127.1 83.7 0 121.3 68.1 121.3 133zm-185.6-31.7h123.6c-6.2-34.7-34-49.3-61.2-49.3-36.1 0-57.5 24.9-62.4 49.3zm333.3 149.5c-76.3 0-128.3-58.1-128.3-126.6 0-70.7 58.8-124.2 128-124.2 67 0 101.2 47.2 101.2 47.2l-41.1 41c0 0-23.9-30.8-60.4-30.8-40.4 0-68 30.9-68 67.7 0 38.8 29.4 68.6 67.6 68.6 37 0 60.7-30.8 60.7-30.8l41.6 41c0 0-33.9 46.9-101.3 46.9zm122.8-6.6v-337.1h59v123.8c0 0 22.6-30.9 71.8-30.9 61.8 0 97.6 45.9 97.6 104.7v139.5h-59v-130.6c0-39.5-24.6-55.8-51.8-55.8-31.1 0-58.6 17.6-58.6 58.9v127.5z"/>
	</g>
</svg>